<svg id="Layer_1" data-name="Layer 1" xmlns="http://www.w3.org/2000/svg" viewBox="0 0 122.64 140.65"><defs><style>.cls-1{fill:#9e0000;}.cls-2{fill:#cf3638;}.cls-3{fill:#dddaba;}.cls-4{fill:#f9f9f9;}.cls-5{fill:#eabfa2;}.cls-6{fill:#f4e4d9;}.cls-7{fill:#77190a;}.cls-8{fill:#055fa3;}.cls-9{fill:#1c7ce5;}.cls-10{fill:#60a9ea;}.cls-11{fill:#91d1db;}.cls-12{fill:#b5e5ea;}.cls-13{fill:#d3a629;}</style></defs><title>Julie</title><rect id="J_leg_shadow" class="cls-1" x="73.08" y="108.15" width="14.75" height="31.95" rx="3.45" ry="3.45"/><rect class="cls-1" x="47.32" y="108.15" width="14.75" height="31.95" rx="3.45" ry="3.45"/><rect id="J_leg_2" class="cls-2" x="47.32" y="112.07" width="13.27" height="27.85" rx="3.45" ry="3.45"/><g id="J_horn_2"><rect class="cls-3" x="17.36" y="24.45" width="25.46" height="14.45" rx="6.43" ry="6.43" transform="translate(60.18 63.35) rotate(-180)"/><rect class="cls-3" x="9.28" y="19.45" width="25.46" height="13.03" rx="6.43" ry="6.43" transform="translate(-3.95 47.98) rotate(-90)"/><path class="cls-3" d="M15.67,18.22V5.36a20.6,20.6,0,0,1,12.62,12.5Z"/><rect class="cls-4" x="13.38" y="19.45" width="15.61" height="7.99" rx="3.99" ry="3.99" transform="translate(-2.25 44.63) rotate(-90)"/><path class="cls-4" d="M17.3,18.69V10.8A12.63,12.63,0,0,1,25,18.47Z"/></g><g id="J_arm"><rect class="cls-5" x="28.82" y="76.24" width="15.54" height="35.5" rx="7" ry="7" transform="matrix(0.28, 0.96, -0.96, 0.28, 116.82, 32.86)"/><rect class="cls-6" x="30.15" y="75.97" width="12.96" height="33.33" rx="6.48" ry="6.48" transform="translate(115.55 31.84) rotate(73.96)"/></g><g id="J_body"><rect class="cls-1" x="42.65" y="65.25" width="52.8" height="57.5" rx="12" ry="12"/><rect class="cls-2" x="42.11" y="68.51" width="48.69" height="53.02" rx="12" ry="12"/></g><rect id="J_face_shadow" class="cls-5" x="27.81" y="37.56" width="75.78" height="38.96" rx="19.48" ry="19.48"/><rect id="J_face" class="cls-6" x="27.92" y="37.56" width="65.95" height="38.96" rx="19.48" ry="19.48"/><ellipse id="J_eye_2" cx="40.82" cy="56.96" rx="3.87" ry="5.52"/><ellipse id="J_eye_1" cx="75.74" cy="56.76" rx="3.87" ry="5.32"/><ellipse id="J_hair_2" class="cls-7" cx="93.87" cy="49.59" rx="9.16" ry="14.79" transform="translate(-12.22 53.58) rotate(-30)"/><g id="helmet"><path class="cls-8" d="M60.81,64.77V45.55h41.56V29.25C96.21,10.14,81.3-.18,66.38,1.68,47.87,4.24,35,12.18,30.82,28.42V45.55L50.53,46l-.43,18.8Z"/><path class="cls-9" d="M58.13,63.54V45h38V29.35C90.48,11,76.86,1,63.22,2.81,46.3,5.27,34.53,12.92,30.71,28.55V45l18,.4-.39,18.1Z"/><path class="cls-10" d="M55.44,7.43c-9.5,3.25-16.87,8.11-20.67,15.67-.84,4.2.58,6.2,5.67,4.67,5-10.16,12.56-14.86,21.24-17.25C61,7.28,58.79,6.41,55.44,7.43Z"/></g><g id="horn_1"><rect class="cls-3" x="89.64" y="24.66" width="25.46" height="14.45" rx="6.43" ry="6.43"/><rect class="cls-3" x="97.72" y="19.66" width="25.46" height="13.03" rx="6.43" ry="6.43" transform="translate(84.27 136.61) rotate(-90)"/><path class="cls-3" d="M116.79,18.42V5.56a20.6,20.6,0,0,0-12.62,12.5Z"/><g id="horn_highlight_1"><rect class="cls-4" x="103.47" y="19.65" width="15.61" height="7.99" rx="3.99" ry="3.99" transform="translate(87.63 134.91) rotate(-90)"/><path class="cls-4" d="M115.16,18.89V11a12.63,12.63,0,0,0-7.74,7.66Z"/></g></g><rect id="sword_shadow" class="cls-11" x="9.28" y="42.28" width="11" height="47.89" rx="3.94" ry="3.94" transform="translate(-25.78 11.82) rotate(-24.13)"/><rect id="Sword_blade" class="cls-12" x="8.84" y="42.57" width="9.1" height="47.89" rx="3.94" ry="3.94" transform="translate(-26.02 11.28) rotate(-24.13)"/><rect id="sword_handle_2" class="cls-13" x="10.54" y="81.05" width="26" height="9.5" rx="4.75" ry="4.75" transform="translate(-33.01 17.12) rotate(-24.13)"/><rect id="sword_handle_1" class="cls-13" x="13.89" y="89.13" width="26" height="9.5" rx="4.75" ry="4.75" transform="translate(-47.8 156.8) rotate(-114.13)"/><g id="Shield"><path class="cls-8" d="M113.89,94.5a19.34,19.34,0,0,1-19.34,19.34h-.42A19.34,19.34,0,1,1,113.89,94.5Z"/><polygon class="cls-8" points="113.89 94.87 75.21 94.87 75.21 72.48 94.55 72.48 113.89 72.48 113.89 94.87"/><path class="cls-9" d="M75.21,72.48H94.36a0,0,0,0,1,0,0v41.23a0,0,0,0,1,0,0h-1.7A17.45,17.45,0,0,1,75.21,96.27V72.48A0,0,0,0,1,75.21,72.48Z"/></g><path id="J_hair_1" class="cls-7" d="M103.43,49c4.23,10.53,10.27,16,18.09,16.36-6.9,5.63-14.63,8.8-24.42,6.13C102.38,67.78,103.55,59.17,103.43,49Z"/><rect id="shield_highlight" class="cls-9" x="106.24" y="78.42" width="4.98" height="18.36" rx="2.49" ry="2.49"/><rect id="J_leg_1" class="cls-2" x="72.63" y="112.07" width="13.27" height="27.85" rx="3.45" ry="3.45"/></svg>