<svg id="Layer_1" data-name="Layer 1" xmlns="http://www.w3.org/2000/svg" width="144.51" height="146.04" viewBox="0 0 144.51 146.04">
  <title>Pc</title>
  <rect x="5.42" y="74.34" width="137.05" height="69.45" rx="12" ry="12" fill="#565656"/>
  <rect x="6.42" y="2.34" width="135.37" height="69.45" rx="12" ry="12" fill="#3a3a3a"/>
  <rect x="2.41" y="73.79" width="136.49" height="69.45" rx="12" ry="12" fill="#7c7c7c"/>
  <rect x="2.25" y="2.72" width="136.64" height="69.45" rx="12" ry="12" fill="#565656"/>
  <rect x="12.09" y="9.7" width="117.17" height="54.3" rx="12" ry="12" fill="#f2f2f2"/>
  <rect x="13.35" y="80.68" width="117.17" height="54.3" rx="12" ry="12" fill="#f2f2f2"/>
  <g>
    <path d="M20.18,91a11.1,11.1,0,0,1,2-.38q16.69-.06,33.38-.07c.12,0,.25.11.66.3-1.37,0-2.47.07-3.56,0-1.72-.14-2.39.4-2.34,2.29s.88,2.27,2.53,2.19,3.37,0,2.53-3c.71,1.3,1,2.45,1.61,2.79a5.19,5.19,0,0,0,3,.13c2.92-.48.82-3,1.85-4.39,0,.43.11.85.13,1.27.16,3.09,1.12,3.9,4.11,3,.73-.22,1.11-1.57,1.56-2.26.74,2.39,1.51,2.91,4.26,2.28a2,2,0,0,0,1.24-1.35c.5-2.94-.68-3.78-4.15-3.13-.84.16-1.7.18-2.55.27l0-.62H81.56c12.85,0,25.71,0,38.56-.07,1.65,0,2.59.34,2.58,2.2-.07,9.83-.08,19.67-.13,29.5a6.42,6.42,0,0,1-.19,1h-1.43c-4.39.06-5.09.89-4.3,5.3a1.75,1.75,0,0,0,1.21,1.07,18.54,18.54,0,0,1,3.18.4H76.17c.72-.24,2.3-.4,2.39-.86a18,18,0,0,0,0-4.9c0-.23-.92-.56-1.41-.57-8.1-.06-16.19-.1-24.29,0-.54,0-1.07.92-1.59,1.42,0,0,0,.14,0,.21-.29,4.52-.29,4.53,4.21,4.53H69.72c3,0,3,0,3.09-3.06a2.27,2.27,0,0,1,.27-1.28v4.51H50.77c0-1.55,0-3.11,0-4.67,0-1.16-.38-1.63-1.6-1.71-4-.25-4-.29-4,3.75a6.41,6.41,0,0,1-.38,2.67c0-1.58,0-3.17,0-4.75,0-1.2-.45-1.61-1.64-1.68-4-.24-4-.28-4,3.76,0,.85,0,1.7,0,2.66H23l0-.2a5.91,5.91,0,0,0,2.25-.19,2.39,2.39,0,0,0,1.07-1.7c.24-3.86.2-3.86-3.07-5,2.39,0,4.78-.08,7.16,0,1.36.06,2-.26,1.94-1.75-.15-5.33.57-4.36-4.23-4.47a42.45,42.45,0,0,1-4.73-.06c-2.32-.32-2.79.66-2.68,2.76a65.64,65.64,0,0,1-.3,10c-.06-.61-.16-1.22-.17-1.83q-.21-16.58-.38-33.16A20.86,20.86,0,0,1,20.22,91c-.33,4.4-.33,4.4,4,4.31l.86,0c1.86,0,1.32-1.49,1.46-2.53S26.4,90.93,25.12,91C23.48,91,21.83,91,20.18,91Zm87,18.16c3.87.45,2.41-2.82,3-4.71a5.08,5.08,0,0,1,.13,1.71c-.21,2,.65,2.63,2.61,2.55,3.24-.13,3.25,0,3.27-3.34,0-.29,0-.58,0-.86.17-1.64-.46-2.4-2.2-2.28-2.62.18-5.24.19-7.86.38-.84.06-2.36.41-2.38.67a13.36,13.36,0,0,0,.48,5.34c.23.58.82,1.18.81,2a21.79,21.79,0,0,1,0,2.58c-.27,2,.64,2.53,2.47,2.37,1.42-.13,2.87,0,4.3,0,4.44,0,4.41,0,4.38-4.51,0-1.38-.53-1.93-1.93-1.89C111.9,109.24,109.53,109.19,107.17,109.19ZM43.77,95.73c-3.48.09-3.48.09-3.42,3.6a5.35,5.35,0,0,1,0,.65c-.17,1.64.44,2.35,2.19,2.23,2.24-.15,4.49,0,6.74-.11,4.6-.14,4.14.62,4.13-4.37,0-1.66-.68-2.08-2.2-2C48.74,95.79,46.25,95.73,43.77,95.73ZM33.58,107.25c0-1.07-.06-1.72,0-2.35.18-1.66-.45-2.28-2.18-2.25-4.13.07-4,0-4,4.13,0,1.73.52,2.48,2.33,2.35a59.59,59.59,0,0,1,6.12-.08c4.74.17,4.76.18,4.55-4.56,0-.14.06-.34,0-.42-.4-.46-.79-1.21-1.27-1.29-4.3-.71-4.83-.27-5.19,3.94C34,106.78,33.89,106.83,33.58,107.25Zm74.66,15.32c-4.28,1.25-4.28,1.25-4,5.3,0,.07,0,.17,0,.21.42.45.78,1.12,1.3,1.28a11.85,11.85,0,0,0,2.35.08c1.52.13,2-.56,2-2-.09-2.49-.05-5,0-7.48,0-4,.36-3.57-3.55-3.59-4.59,0-4.55,0-4.32,4.45.07,1.28.53,1.82,1.81,1.79C105.26,122.53,106.75,122.57,108.24,122.57Zm-53.91-18,.33,0c0,.64.05,1.29,0,1.92-.19,2,.73,2.62,2.67,2.53,4.42-.19,3.81.19,3.82-3.86,0-.29,0-.58,0-.86.1-1.17-.37-1.72-1.6-1.7-3.43.06-6.87,0-10.3.12-.4,0-1.13.42-1.14.65a16.42,16.42,0,0,0,.36,5.08c.16.5,2.16.4,3.32.57,2,.3,2.81-.52,2.55-2.51A14.67,14.67,0,0,1,54.33,104.61Zm-21.9,20.66.29-.09a19.14,19.14,0,0,0,.34,3,2,2,0,0,0,1.1,1.25c3.52.86,4.37,0,4.48-3.5.07-2.28-.79-2.92-2.9-2.68a23.55,23.55,0,0,1-4.25.06c-4.76-.33-5.05,0-4.52,4.64,0,.14,0,.34,0,.42.35.38.68.94,1.11,1,3.68.87,4.7,0,4.31-3.69A4,4,0,0,1,32.44,125.26Zm87.9-30.1c-3.86,1-3.81,1-3.62,5.06.06,1.2.49,1.71,1.67,1.63a10,10,0,0,1,1.94,0c1.66.22,2.18-.56,2.09-2.1a28,28,0,0,1-.12-5.08c.47-3.88.36-4.1-3.48-4.09-.36,0-.72,0-1.08,0-1.34,0-1.86.53-1.88,1.95,0,1.84.6,2.69,2.49,2.53A14.64,14.64,0,0,1,120.34,95.16ZM24.28,116h0c.86,0,1.73.06,2.58,0,.45,0,1.24-.31,1.26-.52a18.45,18.45,0,0,0,0-5.09c-.09-.45-1.94-.73-3-.75-4.86-.11-4.81-.07-4.56,4.64.07,1.43.64,1.92,2,1.77A15.78,15.78,0,0,1,24.28,116Zm61-23.45c.12.26.19.43.28.6.29.59.53,1.64.87,1.68a8.24,8.24,0,0,0,4-.25c.49-.21.43-1.94.39-3,0-.35-.73-1-1.13-1-2.91-.08-5.82-.09-8.72,0A1.83,1.83,0,0,0,79.74,92c.07,1,.23,2.58.88,2.94C82.68,96.1,84.71,94.92,85.25,92.54Zm-52.79-.15c.53,3,.63,3,3.93,2.93,2.08-.05,1.67-1.45,1.82-2.67.18-1.39-.54-1.76-1.74-1.75-2.56,0-5.13,0-7.68.09-.57,0-1.58.57-1.6.91,0,1.08-.1,2.56.54,3.17C29.25,96.5,32.24,95,32.46,92.39ZM47.33,106c-.08-3.39.67-3.35-3.51-3.41-1.89,0-3.09.07-2.93,2.55.24,3.86.08,3.87,3,3.86C47.34,109,47.34,109,47.33,106Zm24.58-3.39c-3.41,0-3.41,0-3.4,2.47,0,3.92,0,3.92,3.58,3.91C75,109,75,109,75,105.18,75,102.63,75,102.63,71.9,102.64Zm15.3,6.91c-3.19,0-3.19,0-3.17,2.67,0,3.67,0,3.71,2.51,3.65,4.21-.11,3.72.55,4-3.95C90.64,109,88.86,109.55,87.2,109.56Zm-3.67,3.38c.05-1.76.57-3.92-2.31-3.31-1.45.31-4.1-1.53-4,2,.08,5-.34,4.09,4,4.33C83.89,116.11,83.64,114.54,83.53,112.94Zm-6.94-.8c0-1.05.53-2.81-2.35-2.67-4,.21-4,0-4,2.51,0,3.95,0,3.95,2.6,3.94C76.59,115.91,76.59,115.91,76.59,112.13Zm-17.14-2.52c-1.52-.06-3.24-.52-3.1,2.37.24,4.83-.06,3.8,4.36,4,3.45.12,1.84-2.48,2.13-4C63.39,109.11,61.3,109.57,59.46,109.61Zm1.62-11.29c0,4.44-.08,3.74,3.86,3.82,2.61.05,2.61,0,2.63-4,0-2.36,0-2.22-3.94-2.43C61.25,95.63,60.73,96.63,61.07,98.32Zm24.09-2.58c-3.28,0-3.28,0-3.28,2.75,0,3.6,0,3.6,2.66,3.61,4.25,0,3.69.14,3.73-3.65C88.29,95.74,88.28,95.74,85.16,95.74ZM67.07,109.56c-3.84,0-3.88,0-3.82,2.24.11,4.21-.61,4.09,4.07,4.06,2.38,0,2.2,0,2.43-3.94C69.9,109.18,68.32,109.48,67.07,109.56Zm13.46,10c0-3,0-3.08-3-3-1.51,0-3.57-.86-3.42,2.21.2,4.09,0,4.09,3.17,4.1S80.53,122.83,80.54,119.51Zm-10.21-3c-1.36.16-3.38-.74-3.17,2.33.28,4,.09,4,3.72,4,2.71,0,2.52,0,2.76-4C73.8,116,72.08,116.5,70.32,116.47Zm-2.26-10.68c0-3.14,0-3.14-2.49-3.15-3.92,0-3.92,0-3.93,2.41,0,4,0,4,2.66,4C68.06,109,68.06,109,68.06,105.79Zm-4.43,10.68c-3.37,0-3.37,0-3.37,2.48,0,3.87,0,3.87,2.72,3.87,3.67,0,3.7,0,3.67-2.68C66.61,116.51,67.38,116.45,63.64,116.47Zm22.21-13.82c-1.44.12-3.4-.71-3.21,2.32.25,4,.06,4,2.75,4,3.75,0,3.75,0,3.75-3.91C89.12,102.64,89.12,102.64,85.85,102.65Zm-36,20.2c3.16-.06,3.15-.06,3.06-4.36-.08-3.57-2.78-1.81-4.3-1.93-3.68-.31-1.71,2.63-2,4.12C46.09,123.49,48.33,122.75,49.85,122.85Zm2.81-13.26c-1.67-.07-3.38-.49-3.22,2.38.26,4.65-.22,3.94,4.11,4,2.37,0,2.2,0,2.42-3.94C56.12,109.15,54.42,109.5,52.66,109.59Zm-7.15,0c-2.92,0-2.92,0-2.91,2.38,0,4,0,4,2.38,3.93,4.32-.13,3.82.63,4-4.06C49.13,109,47.36,109.62,45.51,109.59Zm-3.46,3c0-3,0-3-3.31-3-1.68,0-3.23-.31-3.08,2.39.25,4.52-.27,3.74,4.19,4C42.73,116.06,41.95,114.12,42.05,112.61Zm-13.28,0c0,3.28,0,3.18,4,3.29,2,.06,2.58-.65,2.49-2.6-.19-3.84-.09-3.84-3.69-3.8C28.74,109.54,28.74,109.54,28.77,112.61Zm7.69-10.5c3.14,0,3.18,0,3.1-2.51-.13-4.12.75-3.75-3.77-3.81-1.63,0-2.77.07-2.65,2.25C33.37,102.14,33.27,102.15,36.46,102.11ZM70.85,102c3.78-.21,3.88-.22,3.52-4.4-.31-3.54-3.17-1.69-4.68-1.67-3.47,0-1.33,2.89-1.58,4.42C67.68,102.87,69.78,101.87,70.85,102Zm-14.4,20.64c3.74.14,3.4.51,3.3-4.25-.08-3.64-3-1.72-4.53-1.81-3.41-.19-1.5,2.63-1.75,4.08C53,123.32,55,122.71,56.45,122.63Zm.77-26.85c-1.46.16-3.44-.72-3.31,2.15.19,4.19.08,4.19,3.79,4.2,2.66,0,2.66,0,2.66-3.85C60.35,95.79,60.35,95.79,57.22,95.78ZM78,101.91c3.32-.07,3.25-.07,3.27-4.06,0-3.68-2.69-1.85-4.19-2-2.25-.24-2.15,0-2.22,4.19C74.85,102.92,76.75,101.81,78,101.91Zm4,3.63c-.08-1.18.8-3.4-1.94-2.84-1.47.3-4.23-1.69-4.24,1.51,0,1.5-1.92,4.75,1.83,4.68C82.72,108.8,82.07,109.45,82,105.55Zm-46.21,17c3.26,0,3.26,0,3.26-3.47,0-2.66,0-2.66-3-2.65-3.42,0-3.45,0-3.41,2.65C32.74,122.5,32.11,122.92,35.8,122.58Zm59.33-2.81c.22,1.14-.77,3.07,1.88,3,4.44-.09,4.55-.11,4.56-3.13,0-3.22,0-3.22-3.57-3.23C95.14,116.41,95.14,116.41,95.13,119.77Zm4.37-11c3.83-.12,3.56.59,3.39-4.47-.12-3.42-3-1.54-4.49-1.55-3.41,0-1.43,2.82-1.7,4.34C96.26,109.65,98.3,108.73,99.5,108.8Zm-6.93,0c3.87-.07,3.5.6,3.34-4.54-.1-3.29-2.85-1.36-4.32-1.55-2.15-.28-2.09,0-2,4.37C89.58,109.82,91.44,108.63,92.57,108.77ZM42.14,122.6c3.81,0,3.64,0,3.85-3.76.15-2.64-1.34-2.46-3.05-2.41-4,.11-3.11-.33-3.37,4C39.39,123.24,41.1,122.67,42.14,122.6ZM20.53,105.39c.17,4.36-.38,3.77,4.3,3.65,3.47-.09,1.62-2.87,1.81-4.41.25-2-.63-2.23-4.78-2C19.56,102.8,20.78,104.5,20.53,105.39Zm92.4-3.58c3.27,0,3.28,0,3.26-3.92,0-1.1.33-2.35-1.57-2.33-4.81.06-4.81,0-4.79,3.74C109.85,101.83,109.85,101.83,112.93,101.81Zm-21,0c3.64,0,3.2.39,3.24-3.91,0-2.3,0-2.3-3.81-2.28-2.63,0-2.63,0-2.62,3.3C88.76,101.86,88.76,101.86,91.94,101.84ZM32.71,99c0-3.18,0-3.06-3.82-3.21-2.23-.09-2.42,1-2.39,2.75.08,4.55.12,3.6,3.77,3.65C32.72,102.17,32.72,102.13,32.71,99Zm51.55,17.54c-1.74-.12-3.45-.47-3.29,2.38.2,3.71,0,3.72,4,3.73,2.42,0,2.24,0,2.5-3.68C87.68,116.08,86,116.36,84.26,116.49Zm10.05,3.06c0-3.09,0-3.09-2.47-3.11-3.86,0-3.86,0-3.87,2.44,0,3.7,0,3.7,3.07,3.72C94.3,122.61,94.3,122.61,94.31,119.55Zm-.12-10c-3.19,0-3.19,0-3.17,3.35,0,2.84,0,2.84,3.55,2.81,2.86,0,2.71,0,2.87-3.95C97.55,108.91,95.72,109.59,94.19,109.52ZM99,101.88c4,0,3.14.43,3.33-4.32.13-3.3-2.9-1.6-4.44-1.71-3.44-.25-1.59,2.58-1.89,4C95.44,102.66,97.61,101.82,99,101.88Zm11.33,17.54c0,3.05,0,3.05,3.41,3,2.49,0,2.49,0,2.49-3.87,0-2.36,0-2.21-3.67-2.4C109.76,116,110.41,117.88,110.36,119.42Zm-12.28-7c0,3.32,0,3.32,3.75,3.27,2.63,0,2.61-.1,2.72-4.25.07-2.63-1.8-1.9-3.13-1.92C98,109.43,98,109.48,98.08,112.37Zm7.81-10.56c3.23,0,3.18,0,3.24-3.74,0-1.63-.26-2.48-2.22-2.4-4.08.16-4.08.06-4.07,2.9C102.84,101.83,102.84,101.83,105.89,101.82ZM85.21,126.53c0-3.26,0-3.26-3.5-3.26-2.4,0-2.27,0-2.44,3.68-.1,2.22.82,2.64,2.76,2.56C85.21,129.38,85.21,129.47,85.21,126.53Zm-59-27.48c-.4-1-.57-2.74-1.33-3.05-3.23-1.34-4.73-.14-4.66,3.31a9,9,0,0,0,.09,1.71c.08.38.38,1,.61,1a15.4,15.4,0,0,0,4.43-.09C25.82,101.83,25.91,100.25,26.24,99.05Zm89.7,27.21c0-3.22,0-3.22-2.19-3.23-3.39,0-3.44,0-3.45,2.51,0,3.83,0,3.83,2.45,3.85C115.91,129.41,115.91,129.41,115.93,126.26Zm6.72-20.65c-.24-3.41-.24-3.3-3.31-3.4-2.08-.07-2.89.68-2.63,2.73.1.77,0,1.58.05,2.36.05.44.34,1.19.57,1.2a13,13,0,0,0,4.43-.09C122.29,108.25,122.37,106.59,122.65,105.61Zm-5.94,6.79c0,3.14,0,3.09,2.87,3.17,1.73,0,3,.08,2.92-2.36-.18-4,0-4-2.43-4C116.71,109.23,116.71,109.23,116.71,112.4Zm0,6.88c0,3.14,0,3.14,2.47,3.15,3.28,0,3.28,0,3.29-2.88,0-3.29-.06-3.4-2.34-3.4C116.68,116.16,116.68,116.16,116.67,119.29ZM98,126.35c0,3.07,0,3.07,2.06,3.11,3.58.07,3.81,0,3.59-2.22-.14-1.47,1.44-4.05-2-4S98,123.23,98,126.35Zm-6.74.17c0-3.22,0-3.08-2.85-3.28-2.2-.16-2.89.56-2.79,2.76.16,3.47,0,3.48,2.91,3.49C91.23,129.5,91.23,129.5,91.25,126.52Zm.52-.22c0,3.2,0,3.2,2.7,3.19,2.88,0,2.71,0,2.94-3.68.16-2.53-1.14-2.6-3-2.54C91.77,123.36,91.77,123.29,91.77,126.3ZM112.08,95c.37,0,.59,0,.8,0,1.87.22,2.66-.42,2.66-2.47,0-2.23-1.35-1.94-2.7-2-.5,0-1,0-1.5,0-1.72-.15-2.34.49-2.34,2.33C109,95.58,110.77,94.93,112.08,95Zm-35.71.16c2.12.41,2.75-.55,2.79-2.59s-1.25-2.08-2.66-2-2.9-.31-2.87,2.05C73.66,94.64,74.25,95.6,76.37,95.18ZM47,95.2c2,.48,2.8-.21,2.83-2.38,0-1.81-.86-2.13-2.21-1.91s-3.25-1-3.31,1.68C44.31,94.46,44.74,95.73,47,95.2Zm58.66-4.67c-1.12.14-2.7-.49-2.72,1.83,0,2,.67,2.72,2.74,2.68,1.91,0,2.86-.33,2.83-2.55S107.16,90.58,105.7,90.53ZM94.08,95c2,.37,2.77-.35,2.81-2.39s-1.3-2.07-2.7-2-2.82-.49-2.83,1.83C91.34,94.47,92,95.39,94.08,95Zm5.68,0c1.9.35,2.85-.16,2.81-2.4,0-1.91-1-2.14-2.39-2s-3-.49-2.93,1.93C97.28,94.26,97.61,95.41,99.75,94.94Zm-58.55.3C43,95.55,44,95.14,44,93s-1.16-2.12-2.59-2c-1.25.07-2.83-.5-2.75,1.86C38.72,94.62,39.09,95.73,41.2,95.25Z"/>
    <path d="M102.7,83.69h16v.44H102.73Z"/>
  </g>
  <path d="M16.47,12.45,98.55,64h12.26L24.09,9.7A12,12,0,0,0,16.47,12.45Z" fill="#caecef"/>
  <path d="M35.23,9.7l87.68,52.88c2-.83,3.61-2.91,5.13-5.32L48.26,9.7Z" fill="#caecef"/>
</svg>
